<svg xmlns="http://www.w3.org/2000/svg" xmlns:rdkit="http://www.rdkit.org/xml" xmlns:xlink="http://www.w3.org/1999/xlink" version="1.1" baseProfile="full" xml:space="preserve" width="400px" height="200px" viewBox="0 0 400 200">
<!-- END OF HEADER -->
<rect style="opacity:1.0;fill:#FFFFFF;stroke:none" width="200.0" height="200.0" x="0.0" y="0.0"> </rect>
<path class="bond-0 atom-0 atom-1" d="M 37.5,31.1 L 49.2,83.1" style="fill:none;fill-rule:evenodd;stroke:#000000;stroke-width:2.0px;stroke-linecap:butt;stroke-linejoin:miter;stroke-opacity:1"/>
<path class="bond-1 atom-1 atom-2" d="M 49.2,83.1 L 10.0,119.1" style="fill:none;fill-rule:evenodd;stroke:#000000;stroke-width:2.0px;stroke-linecap:butt;stroke-linejoin:miter;stroke-opacity:1"/>
<path class="bond-2 atom-1 atom-3" d="M 49.2,83.1 L 100.0,98.9" style="fill:none;fill-rule:evenodd;stroke:#000000;stroke-width:2.0px;stroke-linecap:butt;stroke-linejoin:miter;stroke-opacity:1"/>
<path class="bond-3 atom-3 atom-4" d="M 100.0,98.9 L 111.7,150.9" style="fill:none;fill-rule:evenodd;stroke:#000000;stroke-width:2.0px;stroke-linecap:butt;stroke-linejoin:miter;stroke-opacity:1"/>
<path class="bond-4 atom-3 atom-5" d="M 100.0,98.9 L 139.2,62.9" style="fill:none;fill-rule:evenodd;stroke:#000000;stroke-width:2.0px;stroke-linecap:butt;stroke-linejoin:miter;stroke-opacity:1"/>
<path class="bond-5 atom-5 atom-6" d="M 139.2,62.9 L 190.0,78.8" style="fill:none;fill-rule:evenodd;stroke:#000000;stroke-width:2.0px;stroke-linecap:butt;stroke-linejoin:miter;stroke-opacity:1"/>
<path d="M 137.2,64.7 L 139.2,62.9 L 141.7,63.7" style="fill:none;stroke:#000000;stroke-width:2.0px;stroke-linecap:butt;stroke-linejoin:miter;stroke-miterlimit:10;stroke-opacity:1;"/>
<path class="legend" d="M 25.2 176.9 Q 25.6 175.8, 26.6 175.2 Q 27.6 174.6, 28.9 174.6 Q 30.6 174.6, 31.6 175.5 Q 32.6 176.5, 32.6 178.1 Q 32.6 179.8, 31.3 181.4 Q 30.1 182.9, 27.5 184.8 L 32.8 184.8 L 32.8 186.1 L 25.1 186.1 L 25.1 185.0 Q 27.2 183.5, 28.5 182.4 Q 29.7 181.2, 30.4 180.2 Q 31.0 179.2, 31.0 178.2 Q 31.0 177.1, 30.4 176.5 Q 29.9 175.9, 28.9 175.9 Q 28.0 175.9, 27.4 176.3 Q 26.8 176.6, 26.4 177.4 L 25.2 176.9 " fill="#000000"/>
<path class="legend" d="M 34.4 184.5 L 36.0 184.5 L 36.0 185.7 L 35.6 188.0 L 35.1 188.0 L 35.1 186.1 L 34.4 186.1 L 34.4 184.5 " fill="#000000"/>
<path class="legend" d="M 43.1 180.1 Q 44.2 180.4, 44.7 181.1 Q 45.2 181.8, 45.2 183.0 Q 45.2 183.9, 44.8 184.7 Q 44.3 185.4, 43.4 185.8 Q 42.5 186.2, 41.4 186.2 Q 40.2 186.2, 39.2 185.8 Q 38.4 185.4, 37.6 184.5 L 38.5 183.6 Q 39.2 184.4, 39.8 184.7 Q 40.4 184.9, 41.4 184.9 Q 42.4 184.9, 43.0 184.4 Q 43.6 183.8, 43.6 182.9 Q 43.6 181.8, 43.0 181.3 Q 42.4 180.8, 41.0 180.8 L 40.1 180.8 L 40.1 179.6 L 40.9 179.6 Q 42.1 179.6, 42.8 179.1 Q 43.4 178.5, 43.4 177.5 Q 43.4 176.8, 42.9 176.3 Q 42.3 175.9, 41.4 175.9 Q 40.4 175.9, 39.9 176.2 Q 39.3 176.6, 38.8 177.4 L 37.7 176.8 Q 38.1 175.9, 39.1 175.2 Q 40.0 174.6, 41.4 174.6 Q 43.1 174.6, 44.0 175.4 Q 45.0 176.2, 45.0 177.5 Q 45.0 178.4, 44.5 179.1 Q 44.0 179.7, 43.1 180.1 " fill="#000000"/>
<path class="legend" d="M 46.8 180.3 L 52.7 180.3 L 52.7 181.6 L 46.8 181.6 L 46.8 180.3 " fill="#000000"/>
<path class="legend" d="M 61.6 173.9 L 61.6 186.0 L 60.4 186.0 L 60.2 185.0 Q 59.3 186.2, 57.8 186.2 Q 56.0 186.2, 55.1 185.1 Q 54.1 184.1, 54.1 182.1 Q 54.1 180.0, 55.3 178.9 Q 56.4 177.7, 58.4 177.7 Q 59.2 177.7, 60.1 177.9 L 60.1 173.9 L 61.6 173.9 M 57.9 185.0 Q 58.7 185.0, 59.3 184.6 Q 59.9 184.1, 60.1 183.3 L 60.1 179.1 Q 59.3 178.9, 58.4 178.9 Q 57.1 178.9, 56.4 179.7 Q 55.7 180.6, 55.7 182.1 Q 55.7 183.5, 56.2 184.3 Q 56.8 185.0, 57.9 185.0 " fill="#000000"/>
<path class="legend" d="M 63.5 174.7 L 65.0 174.7 L 65.0 176.1 L 63.5 176.1 L 63.5 174.7 M 63.5 177.8 L 65.0 177.8 L 65.0 186.1 L 63.5 186.1 L 63.5 177.8 " fill="#000000"/>
<path class="legend" d="M 76.5 177.7 Q 77.9 177.7, 78.6 178.4 Q 79.3 179.2, 79.3 180.6 L 79.3 186.1 L 77.8 186.1 L 77.8 180.7 Q 77.8 179.8, 77.4 179.3 Q 77.1 178.9, 76.2 178.9 Q 75.5 178.9, 74.9 179.2 Q 74.3 179.6, 73.9 180.2 Q 73.9 180.3, 73.9 180.6 L 73.9 186.1 L 72.4 186.1 L 72.4 180.7 Q 72.4 179.8, 72.0 179.3 Q 71.7 178.9, 70.8 178.9 Q 70.1 178.9, 69.5 179.2 Q 68.9 179.6, 68.5 180.2 L 68.5 186.1 L 67.0 186.1 L 67.0 177.8 L 68.3 177.8 L 68.4 179.0 Q 69.5 177.7, 71.1 177.7 Q 73.1 177.7, 73.7 179.1 Q 74.8 177.7, 76.5 177.7 " fill="#000000"/>
<path class="legend" d="M 81.2 181.9 Q 81.2 179.9, 82.2 178.8 Q 83.2 177.7, 85.0 177.7 Q 86.9 177.7, 87.7 178.8 Q 88.5 179.9, 88.5 181.9 L 88.5 182.1 L 82.7 182.1 Q 82.8 183.5, 83.4 184.3 Q 84.0 185.0, 85.2 185.0 Q 85.8 185.0, 86.4 184.9 Q 87.0 184.7, 87.7 184.4 L 88.2 185.4 Q 87.3 185.8, 86.6 186.0 Q 85.9 186.2, 85.1 186.2 Q 83.2 186.2, 82.2 185.1 Q 81.2 184.0, 81.2 181.9 M 85.0 178.9 Q 84.1 178.9, 83.5 179.4 Q 83.0 180.0, 82.8 181.0 L 86.9 181.0 Q 86.8 179.9, 86.3 179.4 Q 85.9 178.9, 85.0 178.9 " fill="#000000"/>
<path class="legend" d="M 89.7 179.0 L 89.7 177.8 L 91.3 177.8 L 91.5 175.4 L 92.7 175.4 L 92.7 177.8 L 95.2 177.8 L 95.2 179.0 L 92.7 179.0 L 92.7 183.5 Q 92.7 185.0, 93.9 185.0 Q 94.3 185.0, 95.0 184.7 L 95.3 185.8 Q 94.4 186.2, 93.6 186.2 Q 92.5 186.2, 91.8 185.5 Q 91.2 184.9, 91.2 183.6 L 91.2 179.0 L 89.7 179.0 " fill="#000000"/>
<path class="legend" d="M 100.6 177.7 Q 101.9 177.7, 102.6 178.4 Q 103.3 179.2, 103.3 180.6 L 103.3 186.1 L 101.8 186.1 L 101.8 180.7 Q 101.8 179.8, 101.4 179.3 Q 101.1 178.9, 100.2 178.9 Q 99.5 178.9, 98.9 179.2 Q 98.2 179.6, 97.8 180.2 L 97.8 186.1 L 96.3 186.1 L 96.3 173.9 L 97.8 173.9 L 97.8 178.9 Q 98.9 177.7, 100.6 177.7 " fill="#000000"/>
<path class="legend" d="M 111.5 177.8 L 113.0 177.8 L 108.8 190.0 L 107.4 190.0 L 108.7 186.1 L 108.1 186.1 L 105.2 177.8 L 106.8 177.8 L 109.2 184.8 L 111.5 177.8 " fill="#000000"/>
<path class="legend" d="M 113.8 173.9 L 115.3 173.9 L 115.3 186.1 L 113.8 186.1 L 113.8 173.9 " fill="#000000"/>
<path class="legend" d="M 121.1 177.7 Q 122.8 177.7, 123.8 178.8 Q 124.7 179.8, 124.7 181.8 Q 124.7 183.9, 123.6 185.0 Q 122.5 186.2, 120.5 186.2 Q 119.6 186.2, 118.8 186.0 L 118.8 190.0 L 117.3 190.0 L 117.3 177.8 L 118.5 177.8 L 118.7 178.8 Q 119.1 178.3, 119.7 178.0 Q 120.4 177.7, 121.1 177.7 M 120.5 185.0 Q 121.7 185.0, 122.5 184.2 Q 123.2 183.3, 123.2 181.8 Q 123.2 180.4, 122.6 179.6 Q 122.1 178.9, 121.0 178.9 Q 120.2 178.9, 119.6 179.3 Q 119.0 179.7, 118.8 180.5 L 118.8 184.8 Q 119.6 185.0, 120.5 185.0 " fill="#000000"/>
<path class="legend" d="M 126.1 181.9 Q 126.1 179.9, 127.1 178.8 Q 128.1 177.7, 129.9 177.7 Q 131.7 177.7, 132.5 178.8 Q 133.4 179.9, 133.4 181.9 L 133.4 182.1 L 127.6 182.1 Q 127.7 183.5, 128.3 184.3 Q 128.9 185.0, 130.1 185.0 Q 130.7 185.0, 131.3 184.9 Q 131.9 184.7, 132.6 184.4 L 133.0 185.4 Q 132.2 185.8, 131.5 186.0 Q 130.8 186.2, 130.0 186.2 Q 128.1 186.2, 127.1 185.1 Q 126.1 184.0, 126.1 181.9 M 129.9 178.9 Q 129.0 178.9, 128.4 179.4 Q 127.9 180.0, 127.7 181.0 L 131.8 181.0 Q 131.7 179.9, 131.2 179.4 Q 130.8 178.9, 129.9 178.9 " fill="#000000"/>
<path class="legend" d="M 138.9 177.7 Q 140.2 177.7, 140.9 178.4 Q 141.6 179.2, 141.6 180.6 L 141.6 186.1 L 140.1 186.1 L 140.1 180.7 Q 140.1 179.8, 139.7 179.3 Q 139.3 178.9, 138.5 178.9 Q 137.8 178.9, 137.1 179.2 Q 136.5 179.6, 136.1 180.2 L 136.1 186.1 L 134.6 186.1 L 134.6 177.8 L 135.8 177.8 L 136.0 179.0 Q 137.1 177.7, 138.9 177.7 " fill="#000000"/>
<path class="legend" d="M 143.5 179.0 L 143.5 177.8 L 145.0 177.8 L 145.3 175.4 L 146.4 175.4 L 146.4 177.8 L 148.9 177.8 L 148.9 179.0 L 146.4 179.0 L 146.4 183.5 Q 146.4 185.0, 147.6 185.0 Q 148.1 185.0, 148.8 184.7 L 149.1 185.8 Q 148.2 186.2, 147.3 186.2 Q 146.3 186.2, 145.6 185.5 Q 144.9 184.9, 144.9 183.6 L 144.9 179.0 L 143.5 179.0 " fill="#000000"/>
<path class="legend" d="M 150.1 183.8 Q 150.1 182.5, 151.2 181.8 Q 152.2 181.1, 154.1 181.1 L 155.4 181.1 L 155.4 180.8 Q 155.4 179.7, 154.9 179.3 Q 154.5 178.9, 153.5 178.9 Q 152.8 178.9, 152.3 179.0 Q 151.8 179.1, 151.0 179.5 L 150.6 178.4 Q 152.1 177.7, 153.5 177.7 Q 155.3 177.7, 156.1 178.4 Q 156.9 179.2, 156.9 180.8 L 156.9 186.1 L 155.7 186.1 Q 155.7 186.0, 155.6 185.8 Q 155.6 185.5, 155.5 185.1 Q 154.3 186.3, 152.8 186.3 Q 151.6 186.3, 150.8 185.6 Q 150.1 184.9, 150.1 183.8 M 151.6 183.8 Q 151.6 184.4, 152.0 184.8 Q 152.4 185.1, 153.1 185.1 Q 153.7 185.1, 154.3 184.8 Q 154.9 184.5, 155.4 184.0 L 155.4 182.2 L 154.2 182.2 Q 152.9 182.2, 152.3 182.6 Q 151.6 183.0, 151.6 183.8 " fill="#000000"/>
<path class="legend" d="M 163.0 177.7 Q 164.3 177.7, 165.0 178.4 Q 165.7 179.2, 165.7 180.6 L 165.7 186.1 L 164.2 186.1 L 164.2 180.7 Q 164.2 179.8, 163.8 179.3 Q 163.5 178.9, 162.6 178.9 Q 161.9 178.9, 161.3 179.2 Q 160.6 179.6, 160.2 180.2 L 160.2 186.1 L 158.7 186.1 L 158.7 177.8 L 160.0 177.8 L 160.1 179.0 Q 161.2 177.7, 163.0 177.7 " fill="#000000"/>
<path class="legend" d="M 167.6 181.9 Q 167.6 179.9, 168.6 178.8 Q 169.6 177.7, 171.5 177.7 Q 173.3 177.7, 174.1 178.8 Q 174.9 179.9, 174.9 181.9 L 174.9 182.1 L 169.1 182.1 Q 169.2 183.5, 169.8 184.3 Q 170.4 185.0, 171.6 185.0 Q 172.2 185.0, 172.8 184.9 Q 173.4 184.7, 174.1 184.4 L 174.6 185.4 Q 173.7 185.8, 173.0 186.0 Q 172.3 186.2, 171.5 186.2 Q 169.6 186.2, 168.6 185.1 Q 167.6 184.0, 167.6 181.9 M 171.5 178.9 Q 170.5 178.9, 169.9 179.4 Q 169.4 180.0, 169.2 181.0 L 173.3 181.0 Q 173.2 179.9, 172.7 179.4 Q 172.3 178.9, 171.5 178.9 " fill="#000000"/>
<path class="bond-0 atom-0 atom-1" d="M 379.9,67.9 L 353.3,114.1" style="fill:none;fill-rule:evenodd;stroke:#000000;stroke-width:2.0px;stroke-linecap:butt;stroke-linejoin:miter;stroke-opacity:1"/>
<path class="bond-1 atom-1 atom-2" d="M 353.3,114.1 L 300.0,114.1" style="fill:none;fill-rule:evenodd;stroke:#000000;stroke-width:2.0px;stroke-linecap:butt;stroke-linejoin:miter;stroke-opacity:1"/>
<path class="bond-2 atom-2 atom-3" d="M 300.0,114.1 L 273.4,160.2" style="fill:none;fill-rule:evenodd;stroke:#000000;stroke-width:2.0px;stroke-linecap:butt;stroke-linejoin:miter;stroke-opacity:1"/>
<path class="bond-3 atom-2 atom-4" d="M 300.0,114.1 L 273.4,67.9" style="fill:none;fill-rule:evenodd;stroke:#000000;stroke-width:2.0px;stroke-linecap:butt;stroke-linejoin:miter;stroke-opacity:1"/>
<path class="bond-4 atom-4 atom-5" d="M 273.4,67.9 L 220.1,67.9" style="fill:none;fill-rule:evenodd;stroke:#000000;stroke-width:2.0px;stroke-linecap:butt;stroke-linejoin:miter;stroke-opacity:1"/>
<path class="bond-5 atom-4 atom-6" d="M 273.4,67.9 L 300.0,21.8" style="fill:none;fill-rule:evenodd;stroke:#000000;stroke-width:2.0px;stroke-linecap:butt;stroke-linejoin:miter;stroke-opacity:1"/>
<path d="M 354.6,111.8 L 353.3,114.1 L 350.6,114.1" style="fill:none;stroke:#000000;stroke-width:2.0px;stroke-linecap:butt;stroke-linejoin:miter;stroke-miterlimit:10;stroke-opacity:1;"/>
<path class="legend" d="M 225.2 176.9 Q 225.6 175.8, 226.6 175.2 Q 227.6 174.6, 228.9 174.6 Q 230.6 174.6, 231.6 175.5 Q 232.6 176.5, 232.6 178.1 Q 232.6 179.8, 231.3 181.4 Q 230.1 182.9, 227.5 184.8 L 232.8 184.8 L 232.8 186.1 L 225.1 186.1 L 225.1 185.0 Q 227.2 183.5, 228.5 182.4 Q 229.7 181.2, 230.4 180.2 Q 231.0 179.2, 231.0 178.2 Q 231.0 177.1, 230.4 176.5 Q 229.9 175.9, 228.9 175.9 Q 228.0 175.9, 227.4 176.3 Q 226.8 176.6, 226.4 177.4 L 225.2 176.9 " fill="#000000"/>
<path class="legend" d="M 234.4 184.5 L 236.0 184.5 L 236.0 185.7 L 235.6 188.0 L 235.1 188.0 L 235.1 186.1 L 234.4 186.1 L 234.4 184.5 " fill="#000000"/>
<path class="legend" d="M 243.1 180.1 Q 244.2 180.4, 244.7 181.1 Q 245.2 181.8, 245.2 183.0 Q 245.2 183.9, 244.8 184.7 Q 244.3 185.4, 243.4 185.8 Q 242.5 186.2, 241.4 186.2 Q 240.2 186.2, 239.2 185.8 Q 238.4 185.4, 237.6 184.5 L 238.5 183.6 Q 239.2 184.4, 239.8 184.7 Q 240.4 184.9, 241.4 184.9 Q 242.4 184.9, 243.0 184.4 Q 243.6 183.8, 243.6 182.9 Q 243.6 181.8, 243.0 181.3 Q 242.4 180.8, 241.0 180.8 L 240.1 180.8 L 240.1 179.6 L 240.9 179.6 Q 242.1 179.6, 242.8 179.1 Q 243.4 178.5, 243.4 177.5 Q 243.4 176.8, 242.9 176.3 Q 242.3 175.9, 241.4 175.9 Q 240.4 175.9, 239.9 176.2 Q 239.3 176.6, 238.8 177.4 L 237.7 176.8 Q 238.1 175.9, 239.1 175.2 Q 240.0 174.6, 241.4 174.6 Q 243.1 174.6, 244.0 175.4 Q 245.0 176.2, 245.0 177.5 Q 245.0 178.4, 244.5 179.1 Q 244.0 179.7, 243.1 180.1 " fill="#000000"/>
<path class="legend" d="M 246.8 180.3 L 252.7 180.3 L 252.7 181.6 L 246.8 181.6 L 246.8 180.3 " fill="#000000"/>
<path class="legend" d="M 261.6 173.9 L 261.6 186.0 L 260.4 186.0 L 260.2 185.0 Q 259.3 186.2, 257.8 186.2 Q 256.0 186.2, 255.1 185.1 Q 254.1 184.1, 254.1 182.1 Q 254.1 180.0, 255.3 178.9 Q 256.4 177.7, 258.4 177.7 Q 259.2 177.7, 260.1 177.9 L 260.1 173.9 L 261.6 173.9 M 257.9 185.0 Q 258.7 185.0, 259.3 184.6 Q 259.9 184.1, 260.1 183.3 L 260.1 179.1 Q 259.3 178.9, 258.4 178.9 Q 257.1 178.9, 256.4 179.7 Q 255.7 180.6, 255.7 182.1 Q 255.7 183.5, 256.2 184.3 Q 256.8 185.0, 257.9 185.0 " fill="#000000"/>
<path class="legend" d="M 263.5 174.7 L 265.0 174.7 L 265.0 176.1 L 263.5 176.1 L 263.5 174.7 M 263.5 177.8 L 265.0 177.8 L 265.0 186.1 L 263.5 186.1 L 263.5 177.8 " fill="#000000"/>
<path class="legend" d="M 276.5 177.7 Q 277.9 177.7, 278.6 178.4 Q 279.3 179.2, 279.3 180.6 L 279.3 186.1 L 277.8 186.1 L 277.8 180.7 Q 277.8 179.8, 277.4 179.3 Q 277.1 178.9, 276.2 178.9 Q 275.5 178.9, 274.9 179.2 Q 274.3 179.6, 273.9 180.2 Q 273.9 180.3, 273.9 180.6 L 273.9 186.1 L 272.4 186.1 L 272.4 180.7 Q 272.4 179.8, 272.0 179.3 Q 271.7 178.9, 270.8 178.9 Q 270.1 178.9, 269.5 179.2 Q 268.9 179.6, 268.5 180.2 L 268.5 186.1 L 267.0 186.1 L 267.0 177.8 L 268.3 177.8 L 268.4 179.0 Q 269.5 177.7, 271.1 177.7 Q 273.1 177.7, 273.7 179.1 Q 274.8 177.7, 276.5 177.7 " fill="#000000"/>
<path class="legend" d="M 281.2 181.9 Q 281.2 179.9, 282.2 178.8 Q 283.2 177.7, 285.0 177.7 Q 286.9 177.7, 287.7 178.8 Q 288.5 179.9, 288.5 181.9 L 288.5 182.1 L 282.7 182.1 Q 282.8 183.5, 283.4 184.3 Q 284.0 185.0, 285.2 185.0 Q 285.8 185.0, 286.4 184.9 Q 287.0 184.7, 287.7 184.4 L 288.2 185.4 Q 287.3 185.8, 286.6 186.0 Q 285.9 186.2, 285.1 186.2 Q 283.2 186.2, 282.2 185.1 Q 281.2 184.0, 281.2 181.9 M 285.0 178.9 Q 284.1 178.9, 283.5 179.4 Q 283.0 180.0, 282.8 181.0 L 286.9 181.0 Q 286.8 179.9, 286.3 179.4 Q 285.9 178.9, 285.0 178.9 " fill="#000000"/>
<path class="legend" d="M 289.7 179.0 L 289.7 177.8 L 291.3 177.8 L 291.5 175.4 L 292.7 175.4 L 292.7 177.8 L 295.2 177.8 L 295.2 179.0 L 292.7 179.0 L 292.7 183.5 Q 292.7 185.0, 293.9 185.0 Q 294.3 185.0, 295.0 184.7 L 295.3 185.8 Q 294.4 186.2, 293.6 186.2 Q 292.5 186.2, 291.8 185.5 Q 291.2 184.9, 291.2 183.6 L 291.2 179.0 L 289.7 179.0 " fill="#000000"/>
<path class="legend" d="M 300.6 177.7 Q 301.9 177.7, 302.6 178.4 Q 303.3 179.2, 303.3 180.6 L 303.3 186.1 L 301.8 186.1 L 301.8 180.7 Q 301.8 179.8, 301.4 179.3 Q 301.1 178.9, 300.2 178.9 Q 299.5 178.9, 298.9 179.2 Q 298.2 179.6, 297.8 180.2 L 297.8 186.1 L 296.3 186.1 L 296.3 173.9 L 297.8 173.9 L 297.8 178.9 Q 298.9 177.7, 300.6 177.7 " fill="#000000"/>
<path class="legend" d="M 311.5 177.8 L 313.0 177.8 L 308.8 190.0 L 307.4 190.0 L 308.7 186.1 L 308.1 186.1 L 305.2 177.8 L 306.8 177.8 L 309.2 184.8 L 311.5 177.8 " fill="#000000"/>
<path class="legend" d="M 313.8 173.9 L 315.3 173.9 L 315.3 186.1 L 313.8 186.1 L 313.8 173.9 " fill="#000000"/>
<path class="legend" d="M 321.1 177.7 Q 322.8 177.7, 323.8 178.8 Q 324.7 179.8, 324.7 181.8 Q 324.7 183.9, 323.6 185.0 Q 322.5 186.2, 320.5 186.2 Q 319.6 186.2, 318.8 186.0 L 318.8 190.0 L 317.3 190.0 L 317.3 177.8 L 318.5 177.8 L 318.7 178.8 Q 319.1 178.3, 319.7 178.0 Q 320.4 177.7, 321.1 177.7 M 320.5 185.0 Q 321.7 185.0, 322.5 184.2 Q 323.2 183.3, 323.2 181.8 Q 323.2 180.4, 322.6 179.6 Q 322.1 178.9, 321.0 178.9 Q 320.2 178.9, 319.6 179.3 Q 319.0 179.7, 318.8 180.5 L 318.8 184.8 Q 319.6 185.0, 320.5 185.0 " fill="#000000"/>
<path class="legend" d="M 326.1 181.9 Q 326.1 179.9, 327.1 178.8 Q 328.1 177.7, 329.9 177.7 Q 331.7 177.7, 332.5 178.8 Q 333.4 179.9, 333.4 181.9 L 333.4 182.1 L 327.6 182.1 Q 327.7 183.5, 328.3 184.3 Q 328.9 185.0, 330.1 185.0 Q 330.7 185.0, 331.3 184.9 Q 331.9 184.7, 332.6 184.4 L 333.0 185.4 Q 332.2 185.8, 331.5 186.0 Q 330.8 186.2, 330.0 186.2 Q 328.1 186.2, 327.1 185.1 Q 326.1 184.0, 326.1 181.9 M 329.9 178.9 Q 329.0 178.9, 328.4 179.4 Q 327.9 180.0, 327.7 181.0 L 331.8 181.0 Q 331.7 179.9, 331.2 179.4 Q 330.8 178.9, 329.9 178.9 " fill="#000000"/>
<path class="legend" d="M 338.9 177.7 Q 340.2 177.7, 340.9 178.4 Q 341.6 179.2, 341.6 180.6 L 341.6 186.1 L 340.1 186.1 L 340.1 180.7 Q 340.1 179.8, 339.7 179.3 Q 339.3 178.9, 338.5 178.9 Q 337.8 178.9, 337.1 179.2 Q 336.5 179.6, 336.1 180.2 L 336.1 186.1 L 334.6 186.1 L 334.6 177.8 L 335.8 177.8 L 336.0 179.0 Q 337.1 177.7, 338.9 177.7 " fill="#000000"/>
<path class="legend" d="M 343.5 179.0 L 343.5 177.8 L 345.0 177.8 L 345.3 175.4 L 346.4 175.4 L 346.4 177.8 L 348.9 177.8 L 348.9 179.0 L 346.4 179.0 L 346.4 183.5 Q 346.4 185.0, 347.6 185.0 Q 348.1 185.0, 348.8 184.7 L 349.1 185.8 Q 348.2 186.2, 347.3 186.2 Q 346.3 186.2, 345.6 185.5 Q 344.9 184.9, 344.9 183.6 L 344.9 179.0 L 343.5 179.0 " fill="#000000"/>
<path class="legend" d="M 350.1 183.8 Q 350.1 182.5, 351.2 181.8 Q 352.2 181.1, 354.1 181.1 L 355.4 181.1 L 355.4 180.8 Q 355.4 179.7, 354.9 179.3 Q 354.5 178.9, 353.5 178.9 Q 352.8 178.9, 352.3 179.0 Q 351.8 179.1, 351.0 179.5 L 350.6 178.4 Q 352.1 177.7, 353.5 177.7 Q 355.3 177.7, 356.1 178.4 Q 356.9 179.2, 356.9 180.8 L 356.9 186.1 L 355.7 186.1 Q 355.7 186.0, 355.6 185.8 Q 355.6 185.5, 355.5 185.1 Q 354.3 186.3, 352.8 186.3 Q 351.6 186.3, 350.8 185.6 Q 350.1 184.9, 350.1 183.8 M 351.6 183.8 Q 351.6 184.4, 352.0 184.8 Q 352.4 185.1, 353.1 185.1 Q 353.7 185.1, 354.3 184.8 Q 354.9 184.5, 355.4 184.0 L 355.4 182.2 L 354.2 182.2 Q 352.9 182.2, 352.3 182.6 Q 351.6 183.0, 351.6 183.8 " fill="#000000"/>
<path class="legend" d="M 363.0 177.7 Q 364.3 177.7, 365.0 178.4 Q 365.7 179.2, 365.7 180.6 L 365.7 186.1 L 364.2 186.1 L 364.2 180.7 Q 364.2 179.8, 363.8 179.3 Q 363.5 178.9, 362.6 178.9 Q 361.9 178.9, 361.3 179.2 Q 360.6 179.6, 360.2 180.2 L 360.2 186.1 L 358.7 186.1 L 358.7 177.8 L 360.0 177.8 L 360.1 179.0 Q 361.2 177.7, 363.0 177.7 " fill="#000000"/>
<path class="legend" d="M 367.6 181.9 Q 367.6 179.9, 368.6 178.8 Q 369.6 177.7, 371.5 177.7 Q 373.3 177.7, 374.1 178.8 Q 374.9 179.9, 374.9 181.9 L 374.9 182.1 L 369.1 182.1 Q 369.2 183.5, 369.8 184.3 Q 370.4 185.0, 371.6 185.0 Q 372.2 185.0, 372.8 184.9 Q 373.4 184.7, 374.1 184.4 L 374.6 185.4 Q 373.7 185.8, 373.0 186.0 Q 372.3 186.2, 371.5 186.2 Q 369.6 186.2, 368.6 185.1 Q 367.6 184.0, 367.6 181.9 M 371.5 178.9 Q 370.5 178.9, 369.9 179.4 Q 369.4 180.0, 369.2 181.0 L 373.3 181.0 Q 373.2 179.9, 372.7 179.4 Q 372.3 178.9, 371.5 178.9 " fill="#000000"/>
</svg>