<svg xmlns="http://www.w3.org/2000/svg" xmlns:rdkit="http://www.rdkit.org/xml" xmlns:xlink="http://www.w3.org/1999/xlink" version="1.1" baseProfile="full" xml:space="preserve" width="400px" height="200px" viewBox="0 0 400 200">
<!-- END OF HEADER -->
<rect style="opacity:1.0;fill:#FFFFFF;stroke:none" width="200.0" height="200.0" x="0.0" y="0.0"> </rect>
<path class="bond-0 atom-0 atom-1" d="M 37.5,31.1 L 49.2,83.1" style="fill:none;fill-rule:evenodd;stroke:#000000;stroke-width:2.0px;stroke-linecap:butt;stroke-linejoin:miter;stroke-opacity:1"/>
<path class="bond-1 atom-1 atom-2" d="M 49.2,83.1 L 10.0,119.1" style="fill:none;fill-rule:evenodd;stroke:#000000;stroke-width:2.0px;stroke-linecap:butt;stroke-linejoin:miter;stroke-opacity:1"/>
<path class="bond-2 atom-1 atom-3" d="M 49.2,83.1 L 100.0,98.9" style="fill:none;fill-rule:evenodd;stroke:#000000;stroke-width:2.0px;stroke-linecap:butt;stroke-linejoin:miter;stroke-opacity:1"/>
<path class="bond-3 atom-3 atom-4" d="M 100.0,98.9 L 111.7,150.9" style="fill:none;fill-rule:evenodd;stroke:#000000;stroke-width:2.0px;stroke-linecap:butt;stroke-linejoin:miter;stroke-opacity:1"/>
<path class="bond-4 atom-3 atom-5" d="M 100.0,98.9 L 139.2,62.9" style="fill:none;fill-rule:evenodd;stroke:#000000;stroke-width:2.0px;stroke-linecap:butt;stroke-linejoin:miter;stroke-opacity:1"/>
<path class="bond-5 atom-5 atom-6" d="M 139.2,62.9 L 190.0,78.8" style="fill:none;fill-rule:evenodd;stroke:#000000;stroke-width:2.0px;stroke-linecap:butt;stroke-linejoin:miter;stroke-opacity:1"/>
<path d="M 137.2,64.7 L 139.2,62.9 L 141.7,63.7" style="fill:none;stroke:#000000;stroke-width:2.0px;stroke-linecap:butt;stroke-linejoin:miter;stroke-miterlimit:10;stroke-opacity:1;"/>
<path class="legend" d="M 10.0 180.4 Q 10.3 179.6, 11.1 179.2 Q 11.8 178.8, 12.8 178.8 Q 14.0 178.8, 14.7 179.4 Q 15.4 180.1, 15.4 181.3 Q 15.4 182.6, 14.5 183.7 Q 13.6 184.8, 11.8 186.2 L 15.6 186.2 L 15.6 187.1 L 10.0 187.1 L 10.0 186.3 Q 11.5 185.2, 12.5 184.4 Q 13.4 183.6, 13.8 182.9 Q 14.3 182.1, 14.3 181.4 Q 14.3 180.6, 13.9 180.1 Q 13.5 179.7, 12.8 179.7 Q 12.1 179.7, 11.7 180.0 Q 11.2 180.2, 10.9 180.8 L 10.0 180.4 " fill="#000000"/>
<path class="legend" d="M 16.7 186.0 L 17.9 186.0 L 17.9 186.9 L 17.7 188.5 L 17.2 188.5 L 17.2 187.1 L 16.7 187.1 L 16.7 186.0 " fill="#000000"/>
<path class="legend" d="M 23.1 182.8 Q 23.9 183.0, 24.3 183.5 Q 24.6 184.0, 24.6 184.9 Q 24.6 185.6, 24.3 186.1 Q 23.9 186.6, 23.3 187.0 Q 22.7 187.2, 21.8 187.2 Q 20.9 187.2, 20.3 186.9 Q 19.6 186.6, 19.1 186.0 L 19.8 185.3 Q 20.3 185.9, 20.7 186.1 Q 21.1 186.3, 21.8 186.3 Q 22.6 186.3, 23.0 185.9 Q 23.5 185.5, 23.5 184.9 Q 23.5 184.0, 23.0 183.6 Q 22.5 183.3, 21.5 183.3 L 20.9 183.3 L 20.9 182.4 L 21.5 182.4 Q 22.3 182.4, 22.8 182.0 Q 23.3 181.6, 23.3 180.9 Q 23.3 180.3, 22.9 180.0 Q 22.5 179.7, 21.8 179.7 Q 21.1 179.7, 20.7 179.9 Q 20.3 180.2, 20.0 180.8 L 19.2 180.4 Q 19.5 179.7, 20.2 179.2 Q 20.9 178.8, 21.8 178.8 Q 23.0 178.8, 23.8 179.3 Q 24.5 179.9, 24.5 180.9 Q 24.5 181.5, 24.1 182.0 Q 23.8 182.5, 23.1 182.8 " fill="#000000"/>
<path class="legend" d="M 25.8 182.9 L 30.1 182.9 L 30.1 183.9 L 25.8 183.9 L 25.8 182.9 " fill="#000000"/>
<path class="legend" d="M 36.6 178.3 L 36.6 187.1 L 35.7 187.1 L 35.5 186.4 Q 34.9 187.2, 33.7 187.2 Q 32.5 187.2, 31.8 186.5 Q 31.1 185.7, 31.1 184.2 Q 31.1 182.7, 31.9 181.9 Q 32.7 181.0, 34.2 181.0 Q 34.8 181.0, 35.5 181.2 L 35.5 178.3 L 36.6 178.3 M 33.8 186.4 Q 34.4 186.4, 34.9 186.0 Q 35.3 185.7, 35.5 185.1 L 35.5 182.1 Q 34.9 181.9, 34.2 181.9 Q 33.3 181.9, 32.7 182.5 Q 32.2 183.1, 32.2 184.2 Q 32.2 185.2, 32.6 185.8 Q 33.1 186.4, 33.8 186.4 " fill="#000000"/>
<path class="legend" d="M 37.9 178.9 L 39.0 178.9 L 39.0 179.9 L 37.9 179.9 L 37.9 178.9 M 37.9 181.1 L 39.0 181.1 L 39.0 187.1 L 37.9 187.1 L 37.9 181.1 " fill="#000000"/>
<path class="legend" d="M 47.4 181.0 Q 48.4 181.0, 48.9 181.6 Q 49.4 182.1, 49.4 183.2 L 49.4 187.1 L 48.3 187.1 L 48.3 183.2 Q 48.3 182.5, 48.1 182.2 Q 47.8 181.9, 47.2 181.9 Q 46.7 181.9, 46.2 182.1 Q 45.8 182.4, 45.5 182.8 Q 45.5 182.9, 45.5 183.2 L 45.5 187.1 L 44.4 187.1 L 44.4 183.2 Q 44.4 182.5, 44.1 182.2 Q 43.9 181.9, 43.3 181.9 Q 42.7 181.9, 42.3 182.1 Q 41.8 182.4, 41.6 182.8 L 41.6 187.1 L 40.5 187.1 L 40.5 181.1 L 41.4 181.1 L 41.5 181.9 Q 42.3 181.0, 43.5 181.0 Q 44.9 181.0, 45.3 182.1 Q 46.1 181.0, 47.4 181.0 " fill="#000000"/>
<path class="legend" d="M 50.8 184.1 Q 50.8 182.6, 51.5 181.8 Q 52.3 181.0, 53.6 181.0 Q 54.9 181.0, 55.5 181.8 Q 56.1 182.6, 56.1 184.1 L 56.1 184.3 L 51.9 184.3 Q 51.9 185.3, 52.4 185.8 Q 52.8 186.4, 53.7 186.4 Q 54.2 186.4, 54.6 186.3 Q 55.0 186.1, 55.6 185.9 L 55.9 186.6 Q 55.3 187.0, 54.7 187.1 Q 54.2 187.2, 53.6 187.2 Q 52.3 187.2, 51.5 186.4 Q 50.8 185.6, 50.8 184.1 M 53.6 181.9 Q 52.9 181.9, 52.5 182.3 Q 52.1 182.7, 52.0 183.5 L 54.9 183.5 Q 54.9 182.6, 54.5 182.3 Q 54.2 181.9, 53.6 181.9 " fill="#000000"/>
<path class="legend" d="M 57.0 182.0 L 57.0 181.1 L 58.1 181.1 L 58.3 179.4 L 59.1 179.4 L 59.1 181.1 L 61.0 181.1 L 61.0 182.0 L 59.1 182.0 L 59.1 185.3 Q 59.1 186.3, 60.0 186.3 Q 60.4 186.3, 60.9 186.2 L 61.1 186.9 Q 60.4 187.2, 59.8 187.2 Q 59.0 187.2, 58.5 186.7 Q 58.0 186.3, 58.0 185.3 L 58.0 182.0 L 57.0 182.0 " fill="#000000"/>
<path class="legend" d="M 64.9 181.0 Q 65.9 181.0, 66.4 181.6 Q 66.9 182.1, 66.9 183.2 L 66.9 187.1 L 65.8 187.1 L 65.8 183.2 Q 65.8 182.5, 65.5 182.2 Q 65.3 181.9, 64.7 181.9 Q 64.1 181.9, 63.7 182.1 Q 63.2 182.4, 62.9 182.8 L 62.9 187.1 L 61.8 187.1 L 61.8 178.3 L 62.9 178.3 L 62.9 181.9 Q 63.7 181.0, 64.9 181.0 " fill="#000000"/>
<path class="legend" d="M 72.9 181.1 L 73.9 181.1 L 70.8 190.0 L 69.9 190.0 L 70.8 187.1 L 70.4 187.1 L 68.3 181.1 L 69.4 181.1 L 71.2 186.2 L 72.9 181.1 " fill="#000000"/>
<path class="legend" d="M 74.5 178.3 L 75.6 178.3 L 75.6 187.1 L 74.5 187.1 L 74.5 178.3 " fill="#000000"/>
<path class="legend" d="M 79.8 181.0 Q 81.1 181.0, 81.8 181.8 Q 82.5 182.6, 82.5 184.0 Q 82.5 185.5, 81.6 186.4 Q 80.8 187.2, 79.4 187.2 Q 78.7 187.2, 78.1 187.1 L 78.1 190.0 L 77.0 190.0 L 77.0 181.1 L 77.9 181.1 L 78.1 181.9 Q 78.4 181.4, 78.8 181.2 Q 79.3 181.0, 79.8 181.0 M 79.4 186.4 Q 80.3 186.4, 80.8 185.8 Q 81.3 185.1, 81.3 184.0 Q 81.3 183.0, 80.9 182.4 Q 80.5 181.9, 79.8 181.9 Q 79.2 181.9, 78.7 182.2 Q 78.3 182.5, 78.1 183.1 L 78.1 186.2 Q 78.7 186.4, 79.4 186.4 " fill="#000000"/>
<path class="legend" d="M 83.4 184.1 Q 83.4 182.6, 84.2 181.8 Q 84.9 181.0, 86.2 181.0 Q 87.6 181.0, 88.2 181.8 Q 88.7 182.6, 88.7 184.1 L 88.7 184.3 L 84.6 184.3 Q 84.6 185.3, 85.0 185.8 Q 85.5 186.4, 86.3 186.4 Q 86.8 186.4, 87.2 186.3 Q 87.7 186.1, 88.2 185.9 L 88.5 186.6 Q 87.9 187.0, 87.4 187.1 Q 86.8 187.2, 86.3 187.2 Q 84.9 187.2, 84.2 186.4 Q 83.4 185.6, 83.4 184.1 M 86.2 181.9 Q 85.6 181.9, 85.1 182.3 Q 84.7 182.7, 84.6 183.5 L 87.6 183.5 Q 87.5 182.6, 87.2 182.3 Q 86.9 181.9, 86.2 181.9 " fill="#000000"/>
<path class="legend" d="M 92.8 181.0 Q 93.7 181.0, 94.2 181.6 Q 94.7 182.1, 94.7 183.2 L 94.7 187.1 L 93.6 187.1 L 93.6 183.2 Q 93.6 182.5, 93.4 182.2 Q 93.1 181.9, 92.5 181.9 Q 91.9 181.9, 91.5 182.1 Q 91.0 182.4, 90.7 182.8 L 90.7 187.1 L 89.6 187.1 L 89.6 181.1 L 90.5 181.1 L 90.7 182.0 Q 91.5 181.0, 92.8 181.0 " fill="#000000"/>
<path class="legend" d="M 96.1 182.0 L 96.1 181.1 L 97.2 181.1 L 97.4 179.4 L 98.2 179.4 L 98.2 181.1 L 100.1 181.1 L 100.1 182.0 L 98.2 182.0 L 98.2 185.3 Q 98.2 186.3, 99.1 186.3 Q 99.5 186.3, 100.0 186.2 L 100.2 186.9 Q 99.5 187.2, 98.9 187.2 Q 98.1 187.2, 97.6 186.7 Q 97.1 186.3, 97.1 185.3 L 97.1 182.0 L 96.1 182.0 " fill="#000000"/>
<path class="legend" d="M 100.9 185.5 Q 100.9 184.5, 101.7 184.0 Q 102.4 183.5, 103.9 183.5 L 104.7 183.5 L 104.7 183.3 Q 104.7 182.5, 104.4 182.2 Q 104.1 181.9, 103.4 181.9 Q 102.9 181.9, 102.5 182.0 Q 102.2 182.1, 101.6 182.3 L 101.2 181.6 Q 102.3 181.0, 103.4 181.0 Q 104.7 181.0, 105.3 181.6 Q 105.8 182.1, 105.8 183.3 L 105.8 187.1 L 105.0 187.1 Q 105.0 187.1, 104.9 186.9 Q 104.9 186.7, 104.8 186.4 Q 104.0 187.3, 102.9 187.3 Q 102.0 187.3, 101.4 186.8 Q 100.9 186.3, 100.9 185.5 M 102.0 185.5 Q 102.0 185.9, 102.3 186.2 Q 102.6 186.4, 103.1 186.4 Q 103.6 186.4, 104.0 186.2 Q 104.4 186.0, 104.7 185.6 L 104.7 184.3 L 103.9 184.3 Q 103.0 184.3, 102.5 184.6 Q 102.0 184.9, 102.0 185.5 " fill="#000000"/>
<path class="legend" d="M 110.3 181.0 Q 111.3 181.0, 111.8 181.6 Q 112.3 182.1, 112.3 183.2 L 112.3 187.1 L 111.2 187.1 L 111.2 183.2 Q 111.2 182.5, 110.9 182.2 Q 110.6 181.9, 110.0 181.9 Q 109.5 181.9, 109.0 182.1 Q 108.6 182.4, 108.3 182.8 L 108.3 187.1 L 107.2 187.1 L 107.2 181.1 L 108.1 181.1 L 108.2 182.0 Q 109.0 181.0, 110.3 181.0 " fill="#000000"/>
<path class="legend" d="M 113.6 184.1 Q 113.6 182.6, 114.4 181.8 Q 115.1 181.0, 116.5 181.0 Q 117.8 181.0, 118.4 181.8 Q 118.9 182.6, 118.9 184.1 L 118.9 184.3 L 114.8 184.3 Q 114.8 185.3, 115.2 185.8 Q 115.7 186.4, 116.5 186.4 Q 117.0 186.4, 117.4 186.3 Q 117.9 186.1, 118.4 185.9 L 118.7 186.6 Q 118.1 187.0, 117.6 187.1 Q 117.0 187.2, 116.5 187.2 Q 115.1 187.2, 114.4 186.4 Q 113.6 185.6, 113.6 184.1 M 116.5 181.9 Q 115.8 181.9, 115.3 182.3 Q 114.9 182.7, 114.8 183.5 L 117.8 183.5 Q 117.7 182.6, 117.4 182.3 Q 117.1 181.9, 116.5 181.9 " fill="#000000"/>
<path class="legend" d="" fill="#000000"/>
<path class="legend" d="M 124.2 183.0 Q 124.2 180.9, 125.1 179.9 Q 126.1 178.8, 127.9 178.8 Q 129.6 178.8, 130.6 180.0 L 129.8 180.6 Q 129.1 179.7, 127.9 179.7 Q 126.7 179.7, 126.0 180.6 Q 125.4 181.4, 125.4 183.0 Q 125.4 184.6, 126.0 185.5 Q 126.7 186.3, 128.1 186.3 Q 129.0 186.3, 130.0 185.8 L 130.4 186.6 Q 129.9 186.9, 129.3 187.1 Q 128.6 187.2, 127.9 187.2 Q 126.1 187.2, 125.1 186.1 Q 124.2 185.0, 124.2 183.0 " fill="#000000"/>
<path class="legend" d="M 131.5 183.0 Q 131.5 180.9, 132.4 179.9 Q 133.4 178.8, 135.2 178.8 Q 136.9 178.8, 137.8 180.0 L 137.1 180.6 Q 136.4 179.7, 135.2 179.7 Q 134.0 179.7, 133.3 180.6 Q 132.7 181.4, 132.7 183.0 Q 132.7 184.6, 133.3 185.5 Q 134.0 186.3, 135.4 186.3 Q 136.3 186.3, 137.3 185.8 L 137.7 186.6 Q 137.2 186.9, 136.6 187.1 Q 135.9 187.2, 135.2 187.2 Q 133.4 187.2, 132.4 186.1 Q 131.5 185.0, 131.5 183.0 " fill="#000000"/>
<path class="legend" d="M 138.8 183.8 Q 138.8 182.1, 139.2 180.8 Q 139.7 179.4, 140.7 177.9 L 141.3 178.3 Q 140.6 179.7, 140.2 181.0 Q 139.8 182.2, 139.8 183.8 Q 139.8 185.4, 140.2 186.6 Q 140.6 187.9, 141.3 189.3 L 140.7 189.7 Q 139.7 188.2, 139.2 186.9 Q 138.8 185.5, 138.8 183.8 " fill="#000000"/>
<path class="legend" d="M 142.1 183.0 Q 142.1 180.9, 143.0 179.9 Q 144.0 178.8, 145.8 178.8 Q 147.5 178.8, 148.4 180.0 L 147.7 180.6 Q 147.0 179.7, 145.8 179.7 Q 144.6 179.7, 143.9 180.6 Q 143.3 181.4, 143.3 183.0 Q 143.3 184.6, 143.9 185.5 Q 144.6 186.3, 146.0 186.3 Q 146.9 186.3, 147.9 185.8 L 148.3 186.6 Q 147.8 186.9, 147.2 187.1 Q 146.5 187.2, 145.8 187.2 Q 144.0 187.2, 143.0 186.1 Q 142.1 185.0, 142.1 183.0 " fill="#000000"/>
<path class="legend" d="M 151.9 183.8 Q 151.9 185.5, 151.4 186.9 Q 151.0 188.2, 150.0 189.7 L 149.4 189.3 Q 150.1 187.9, 150.5 186.6 Q 150.9 185.4, 150.9 183.8 Q 150.9 182.2, 150.5 181.0 Q 150.1 179.7, 149.4 178.3 L 150.0 177.9 Q 151.0 179.4, 151.4 180.8 Q 151.9 182.1, 151.9 183.8 " fill="#000000"/>
<path class="legend" d="M 153.0 183.0 Q 153.0 180.9, 153.9 179.9 Q 154.9 178.8, 156.7 178.8 Q 158.4 178.8, 159.3 180.0 L 158.6 180.6 Q 157.9 179.7, 156.7 179.7 Q 155.5 179.7, 154.8 180.6 Q 154.2 181.4, 154.2 183.0 Q 154.2 184.6, 154.8 185.5 Q 155.5 186.3, 156.8 186.3 Q 157.8 186.3, 158.8 185.8 L 159.1 186.6 Q 158.7 186.9, 158.1 187.1 Q 157.4 187.2, 156.7 187.2 Q 154.9 187.2, 153.9 186.1 Q 153.0 185.0, 153.0 183.0 " fill="#000000"/>
<path class="legend" d="M 160.2 183.8 Q 160.2 182.1, 160.7 180.8 Q 161.2 179.4, 162.2 177.9 L 162.8 178.3 Q 162.1 179.7, 161.7 181.0 Q 161.3 182.2, 161.3 183.8 Q 161.3 185.4, 161.7 186.6 Q 162.1 187.9, 162.8 189.3 L 162.2 189.7 Q 161.2 188.2, 160.7 186.9 Q 160.2 185.5, 160.2 183.8 " fill="#000000"/>
<path class="legend" d="M 163.6 183.0 Q 163.6 180.9, 164.5 179.9 Q 165.5 178.8, 167.3 178.8 Q 169.0 178.8, 169.9 180.0 L 169.2 180.6 Q 168.5 179.7, 167.3 179.7 Q 166.1 179.7, 165.4 180.6 Q 164.7 181.4, 164.7 183.0 Q 164.7 184.6, 165.4 185.5 Q 166.1 186.3, 167.4 186.3 Q 168.4 186.3, 169.4 185.8 L 169.7 186.6 Q 169.3 186.9, 168.7 187.1 Q 168.0 187.2, 167.3 187.2 Q 165.5 187.2, 164.5 186.1 Q 163.6 185.0, 163.6 183.0 " fill="#000000"/>
<path class="legend" d="M 173.4 183.8 Q 173.4 185.5, 172.9 186.9 Q 172.4 188.2, 171.5 189.7 L 170.8 189.3 Q 171.6 187.9, 172.0 186.6 Q 172.4 185.4, 172.4 183.8 Q 172.4 182.2, 172.0 181.0 Q 171.6 179.7, 170.8 178.3 L 171.5 177.9 Q 172.4 179.4, 172.9 180.8 Q 173.4 182.1, 173.4 183.8 " fill="#000000"/>
<path class="legend" d="M 174.4 183.0 Q 174.4 180.9, 175.4 179.9 Q 176.4 178.8, 178.2 178.8 Q 179.9 178.8, 180.8 180.0 L 180.1 180.6 Q 179.4 179.7, 178.2 179.7 Q 177.0 179.7, 176.3 180.6 Q 175.6 181.4, 175.6 183.0 Q 175.6 184.6, 176.3 185.5 Q 177.0 186.3, 178.3 186.3 Q 179.2 186.3, 180.3 185.8 L 180.6 186.6 Q 180.2 186.9, 179.5 187.1 Q 178.9 187.2, 178.2 187.2 Q 176.4 187.2, 175.4 186.1 Q 174.4 185.0, 174.4 183.0 " fill="#000000"/>
<path class="legend" d="M 181.7 183.0 Q 181.7 180.9, 182.7 179.9 Q 183.7 178.8, 185.5 178.8 Q 187.2 178.8, 188.1 180.0 L 187.3 180.6 Q 186.7 179.7, 185.5 179.7 Q 184.2 179.7, 183.6 180.6 Q 182.9 181.4, 182.9 183.0 Q 182.9 184.6, 183.6 185.5 Q 184.3 186.3, 185.6 186.3 Q 186.5 186.3, 187.6 185.8 L 187.9 186.6 Q 187.5 186.9, 186.8 187.1 Q 186.2 187.2, 185.5 187.2 Q 183.7 187.2, 182.7 186.1 Q 181.7 185.0, 181.7 183.0 " fill="#000000"/>
<path class="legend" d="" fill="#000000"/>
<path class="bond-0 atom-0 atom-1" d="M 379.9,67.9 L 353.3,114.1" style="fill:none;fill-rule:evenodd;stroke:#000000;stroke-width:2.0px;stroke-linecap:butt;stroke-linejoin:miter;stroke-opacity:1"/>
<path class="bond-1 atom-1 atom-2" d="M 353.3,114.1 L 300.0,114.1" style="fill:none;fill-rule:evenodd;stroke:#000000;stroke-width:2.0px;stroke-linecap:butt;stroke-linejoin:miter;stroke-opacity:1"/>
<path class="bond-2 atom-2 atom-3" d="M 300.0,114.1 L 273.4,160.2" style="fill:none;fill-rule:evenodd;stroke:#000000;stroke-width:2.0px;stroke-linecap:butt;stroke-linejoin:miter;stroke-opacity:1"/>
<path class="bond-3 atom-2 atom-4" d="M 300.0,114.1 L 273.4,67.9" style="fill:none;fill-rule:evenodd;stroke:#000000;stroke-width:2.0px;stroke-linecap:butt;stroke-linejoin:miter;stroke-opacity:1"/>
<path class="bond-4 atom-4 atom-5" d="M 273.4,67.9 L 220.1,67.9" style="fill:none;fill-rule:evenodd;stroke:#000000;stroke-width:2.0px;stroke-linecap:butt;stroke-linejoin:miter;stroke-opacity:1"/>
<path class="bond-5 atom-4 atom-6" d="M 273.4,67.9 L 300.0,21.8" style="fill:none;fill-rule:evenodd;stroke:#000000;stroke-width:2.0px;stroke-linecap:butt;stroke-linejoin:miter;stroke-opacity:1"/>
<path d="M 354.6,111.8 L 353.3,114.1 L 350.6,114.1" style="fill:none;stroke:#000000;stroke-width:2.0px;stroke-linecap:butt;stroke-linejoin:miter;stroke-miterlimit:10;stroke-opacity:1;"/>
<path class="legend" d="M 210.0 180.3 Q 210.3 179.6, 211.1 179.1 Q 211.8 178.7, 212.8 178.7 Q 214.1 178.7, 214.8 179.4 Q 215.5 180.0, 215.5 181.3 Q 215.5 182.5, 214.6 183.6 Q 213.6 184.8, 211.8 186.2 L 215.6 186.2 L 215.6 187.1 L 210.0 187.1 L 210.0 186.3 Q 211.6 185.2, 212.5 184.4 Q 213.4 183.6, 213.8 182.8 Q 214.3 182.1, 214.3 181.3 Q 214.3 180.5, 213.9 180.1 Q 213.5 179.6, 212.8 179.6 Q 212.1 179.6, 211.7 179.9 Q 211.2 180.2, 210.9 180.8 L 210.0 180.3 " fill="#000000"/>
<path class="legend" d="M 216.8 185.9 L 218.0 185.9 L 218.0 186.9 L 217.7 188.5 L 217.3 188.5 L 217.3 187.1 L 216.8 187.1 L 216.8 185.9 " fill="#000000"/>
<path class="legend" d="M 223.2 182.7 Q 224.0 183.0, 224.4 183.5 Q 224.8 184.0, 224.8 184.8 Q 224.8 185.5, 224.4 186.1 Q 224.1 186.6, 223.4 186.9 Q 222.8 187.2, 221.9 187.2 Q 221.1 187.2, 220.4 186.9 Q 219.7 186.6, 219.2 186.0 L 219.9 185.3 Q 220.4 185.8, 220.8 186.1 Q 221.3 186.3, 221.9 186.3 Q 222.7 186.3, 223.2 185.9 Q 223.6 185.5, 223.6 184.8 Q 223.6 184.0, 223.1 183.6 Q 222.7 183.2, 221.6 183.2 L 221.0 183.2 L 221.0 182.3 L 221.6 182.3 Q 222.5 182.3, 223.0 181.9 Q 223.4 181.5, 223.4 180.8 Q 223.4 180.3, 223.0 179.9 Q 222.6 179.6, 222.0 179.6 Q 221.3 179.6, 220.8 179.9 Q 220.4 180.1, 220.1 180.7 L 219.3 180.3 Q 219.6 179.6, 220.3 179.1 Q 221.0 178.7, 222.0 178.7 Q 223.2 178.7, 223.9 179.3 Q 224.6 179.8, 224.6 180.8 Q 224.6 181.5, 224.3 182.0 Q 223.9 182.4, 223.2 182.7 " fill="#000000"/>
<path class="legend" d="M 226.0 182.9 L 230.3 182.9 L 230.3 183.8 L 226.0 183.8 L 226.0 182.9 " fill="#000000"/>
<path class="legend" d="M 236.8 178.2 L 236.8 187.1 L 235.9 187.1 L 235.8 186.4 Q 235.1 187.2, 234.0 187.2 Q 232.7 187.2, 232.0 186.4 Q 231.3 185.6, 231.3 184.2 Q 231.3 182.7, 232.2 181.8 Q 233.0 180.9, 234.4 180.9 Q 235.1 180.9, 235.7 181.1 L 235.7 178.2 L 236.8 178.2 M 234.1 186.3 Q 234.7 186.3, 235.1 186.0 Q 235.6 185.7, 235.7 185.1 L 235.7 182.0 Q 235.1 181.8, 234.5 181.8 Q 233.5 181.8, 233.0 182.4 Q 232.5 183.1, 232.5 184.2 Q 232.5 185.2, 232.9 185.8 Q 233.3 186.3, 234.1 186.3 " fill="#000000"/>
<path class="legend" d="M 238.2 178.8 L 239.3 178.8 L 239.3 179.8 L 238.2 179.8 L 238.2 178.8 M 238.2 181.1 L 239.3 181.1 L 239.3 187.1 L 238.2 187.1 L 238.2 181.1 " fill="#000000"/>
<path class="legend" d="M 247.8 180.9 Q 248.8 180.9, 249.3 181.5 Q 249.9 182.0, 249.9 183.1 L 249.9 187.1 L 248.7 187.1 L 248.7 183.2 Q 248.7 182.5, 248.5 182.1 Q 248.2 181.8, 247.6 181.8 Q 247.0 181.8, 246.6 182.1 Q 246.1 182.3, 245.9 182.8 Q 245.9 182.9, 245.9 183.1 L 245.9 187.1 L 244.8 187.1 L 244.8 183.2 Q 244.8 182.5, 244.5 182.1 Q 244.2 181.8, 243.6 181.8 Q 243.1 181.8, 242.6 182.1 Q 242.2 182.3, 241.9 182.8 L 241.9 187.1 L 240.8 187.1 L 240.8 181.1 L 241.7 181.1 L 241.8 181.9 Q 242.6 180.9, 243.8 180.9 Q 245.2 180.9, 245.7 182.0 Q 246.5 180.9, 247.8 180.9 " fill="#000000"/>
<path class="legend" d="M 251.2 184.1 Q 251.2 182.6, 252.0 181.8 Q 252.7 180.9, 254.1 180.9 Q 255.4 180.9, 256.0 181.7 Q 256.6 182.5, 256.6 184.0 L 256.6 184.2 L 252.4 184.2 Q 252.4 185.2, 252.8 185.8 Q 253.3 186.3, 254.2 186.3 Q 254.6 186.3, 255.1 186.2 Q 255.5 186.1, 256.0 185.9 L 256.3 186.6 Q 255.7 186.9, 255.2 187.1 Q 254.7 187.2, 254.1 187.2 Q 252.7 187.2, 252.0 186.4 Q 251.2 185.6, 251.2 184.1 M 254.1 181.8 Q 253.4 181.8, 252.9 182.2 Q 252.5 182.6, 252.4 183.4 L 255.4 183.4 Q 255.3 182.6, 255.0 182.2 Q 254.7 181.8, 254.1 181.8 " fill="#000000"/>
<path class="legend" d="M 257.5 181.9 L 257.5 181.1 L 258.6 181.1 L 258.8 179.3 L 259.7 179.3 L 259.7 181.1 L 261.5 181.1 L 261.5 181.9 L 259.7 181.9 L 259.7 185.2 Q 259.7 186.3, 260.5 186.3 Q 260.9 186.3, 261.4 186.1 L 261.6 186.9 Q 261.0 187.2, 260.3 187.2 Q 259.6 187.2, 259.0 186.7 Q 258.6 186.2, 258.6 185.3 L 258.6 181.9 L 257.5 181.9 " fill="#000000"/>
<path class="legend" d="M 265.5 180.9 Q 266.5 180.9, 267.0 181.5 Q 267.5 182.1, 267.5 183.1 L 267.5 187.1 L 266.4 187.1 L 266.4 183.2 Q 266.4 182.5, 266.1 182.1 Q 265.8 181.8, 265.2 181.8 Q 264.7 181.8, 264.2 182.1 Q 263.8 182.3, 263.5 182.8 L 263.5 187.1 L 262.4 187.1 L 262.4 178.2 L 263.5 178.2 L 263.5 181.8 Q 264.3 180.9, 265.5 180.9 " fill="#000000"/>
<path class="legend" d="M 273.5 181.1 L 274.6 181.1 L 271.5 190.0 L 270.5 190.0 L 271.5 187.1 L 271.0 187.1 L 268.9 181.1 L 270.0 181.1 L 271.8 186.2 L 273.5 181.1 " fill="#000000"/>
<path class="legend" d="M 275.2 178.2 L 276.3 178.2 L 276.3 187.1 L 275.2 187.1 L 275.2 178.2 " fill="#000000"/>
<path class="legend" d="M 280.6 180.9 Q 281.8 180.9, 282.5 181.7 Q 283.2 182.5, 283.2 184.0 Q 283.2 185.5, 282.4 186.4 Q 281.6 187.2, 280.1 187.2 Q 279.4 187.2, 278.9 187.0 L 278.9 190.0 L 277.8 190.0 L 277.8 181.1 L 278.6 181.1 L 278.8 181.8 Q 279.1 181.4, 279.6 181.2 Q 280.0 180.9, 280.6 180.9 M 280.1 186.3 Q 281.0 186.3, 281.6 185.7 Q 282.1 185.1, 282.1 184.0 Q 282.1 182.9, 281.7 182.4 Q 281.3 181.8, 280.5 181.8 Q 279.9 181.8, 279.5 182.1 Q 279.0 182.5, 278.9 183.0 L 278.9 186.2 Q 279.5 186.3, 280.1 186.3 " fill="#000000"/>
<path class="legend" d="M 284.2 184.1 Q 284.2 182.6, 285.0 181.8 Q 285.7 180.9, 287.1 180.9 Q 288.4 180.9, 289.0 181.7 Q 289.6 182.5, 289.6 184.0 L 289.6 184.2 L 285.4 184.2 Q 285.4 185.2, 285.8 185.8 Q 286.3 186.3, 287.2 186.3 Q 287.6 186.3, 288.1 186.2 Q 288.5 186.1, 289.0 185.9 L 289.3 186.6 Q 288.7 186.9, 288.2 187.1 Q 287.7 187.2, 287.1 187.2 Q 285.7 187.2, 285.0 186.4 Q 284.2 185.6, 284.2 184.1 M 287.1 181.8 Q 286.4 181.8, 285.9 182.2 Q 285.5 182.6, 285.4 183.4 L 288.4 183.4 Q 288.3 182.6, 288.0 182.2 Q 287.7 181.8, 287.1 181.8 " fill="#000000"/>
<path class="legend" d="M 293.6 180.9 Q 294.6 180.9, 295.1 181.5 Q 295.6 182.1, 295.6 183.1 L 295.6 187.1 L 294.5 187.1 L 294.5 183.2 Q 294.5 182.5, 294.2 182.1 Q 294.0 181.8, 293.4 181.8 Q 292.8 181.8, 292.4 182.1 Q 291.9 182.3, 291.6 182.8 L 291.6 187.1 L 290.5 187.1 L 290.5 181.1 L 291.4 181.1 L 291.5 181.9 Q 292.3 180.9, 293.6 180.9 " fill="#000000"/>
<path class="legend" d="M 297.0 181.9 L 297.0 181.1 L 298.2 181.1 L 298.4 179.3 L 299.2 179.3 L 299.2 181.1 L 301.0 181.1 L 301.0 181.9 L 299.2 181.9 L 299.2 185.2 Q 299.2 186.3, 300.1 186.3 Q 300.4 186.3, 300.9 186.1 L 301.1 186.9 Q 300.5 187.2, 299.9 187.2 Q 299.1 187.2, 298.6 186.7 Q 298.1 186.2, 298.1 185.3 L 298.1 181.9 L 297.0 181.9 " fill="#000000"/>
<path class="legend" d="M 301.9 185.5 Q 301.9 184.5, 302.7 184.0 Q 303.4 183.4, 304.9 183.4 L 305.7 183.4 L 305.7 183.2 Q 305.7 182.5, 305.4 182.1 Q 305.1 181.8, 304.4 181.8 Q 303.9 181.8, 303.5 181.9 Q 303.1 182.0, 302.5 182.3 L 302.2 181.5 Q 303.3 180.9, 304.4 180.9 Q 305.7 180.9, 306.3 181.5 Q 306.9 182.0, 306.9 183.2 L 306.9 187.1 L 306.0 187.1 Q 306.0 187.1, 305.9 186.9 Q 305.9 186.7, 305.8 186.4 Q 305.0 187.2, 303.9 187.2 Q 303.0 187.2, 302.4 186.8 Q 301.9 186.3, 301.9 185.5 M 303.0 185.4 Q 303.0 185.9, 303.3 186.1 Q 303.5 186.4, 304.1 186.4 Q 304.5 186.4, 305.0 186.2 Q 305.4 185.9, 305.7 185.6 L 305.7 184.3 L 304.9 184.3 Q 304.0 184.3, 303.5 184.6 Q 303.0 184.9, 303.0 185.4 " fill="#000000"/>
<path class="legend" d="M 311.4 180.9 Q 312.3 180.9, 312.9 181.5 Q 313.4 182.1, 313.4 183.1 L 313.4 187.1 L 312.3 187.1 L 312.3 183.2 Q 312.3 182.5, 312.0 182.1 Q 311.7 181.8, 311.1 181.8 Q 310.5 181.8, 310.1 182.1 Q 309.6 182.3, 309.3 182.8 L 309.3 187.1 L 308.2 187.1 L 308.2 181.1 L 309.1 181.1 L 309.3 181.9 Q 310.1 180.9, 311.4 180.9 " fill="#000000"/>
<path class="legend" d="M 314.7 184.1 Q 314.7 182.6, 315.5 181.8 Q 316.2 180.9, 317.6 180.9 Q 318.9 180.9, 319.5 181.7 Q 320.1 182.5, 320.1 184.0 L 320.1 184.2 L 315.9 184.2 Q 315.9 185.2, 316.4 185.8 Q 316.8 186.3, 317.7 186.3 Q 318.1 186.3, 318.6 186.2 Q 319.0 186.1, 319.5 185.9 L 319.9 186.6 Q 319.3 186.9, 318.7 187.1 Q 318.2 187.2, 317.6 187.2 Q 316.3 187.2, 315.5 186.4 Q 314.7 185.6, 314.7 184.1 M 317.6 181.8 Q 316.9 181.8, 316.5 182.2 Q 316.1 182.6, 315.9 183.4 L 318.9 183.4 Q 318.9 182.6, 318.5 182.2 Q 318.2 181.8, 317.6 181.8 " fill="#000000"/>
<path class="legend" d="" fill="#000000"/>
<path class="legend" d="M 325.4 182.9 Q 325.4 180.9, 326.4 179.8 Q 327.3 178.7, 329.2 178.7 Q 330.9 178.7, 331.8 179.9 L 331.1 180.5 Q 330.4 179.6, 329.2 179.6 Q 327.9 179.6, 327.3 180.5 Q 326.6 181.3, 326.6 182.9 Q 326.6 184.6, 327.3 185.4 Q 328.0 186.3, 329.3 186.3 Q 330.2 186.3, 331.3 185.7 L 331.6 186.6 Q 331.2 186.9, 330.5 187.0 Q 329.9 187.2, 329.2 187.2 Q 327.3 187.2, 326.4 186.1 Q 325.4 185.0, 325.4 182.9 " fill="#000000"/>
<path class="legend" d="M 332.8 182.9 Q 332.8 180.9, 333.7 179.8 Q 334.7 178.7, 336.6 178.7 Q 338.3 178.7, 339.2 179.9 L 338.4 180.5 Q 337.7 179.6, 336.6 179.6 Q 335.3 179.6, 334.6 180.5 Q 334.0 181.3, 334.0 182.9 Q 334.0 184.6, 334.7 185.4 Q 335.3 186.3, 336.7 186.3 Q 337.6 186.3, 338.7 185.7 L 339.0 186.6 Q 338.6 186.9, 337.9 187.0 Q 337.3 187.2, 336.5 187.2 Q 334.7 187.2, 333.7 186.1 Q 332.8 185.0, 332.8 182.9 " fill="#000000"/>
<path class="legend" d="M 340.1 182.9 Q 340.1 180.9, 341.1 179.8 Q 342.1 178.7, 343.9 178.7 Q 345.6 178.7, 346.6 179.9 L 345.8 180.5 Q 345.1 179.6, 343.9 179.6 Q 342.7 179.6, 342.0 180.5 Q 341.3 181.3, 341.3 182.9 Q 341.3 184.6, 342.0 185.4 Q 342.7 186.3, 344.0 186.3 Q 345.0 186.3, 346.0 185.7 L 346.4 186.6 Q 345.9 186.9, 345.3 187.0 Q 344.6 187.2, 343.9 187.2 Q 342.1 187.2, 341.1 186.1 Q 340.1 185.0, 340.1 182.9 " fill="#000000"/>
<path class="legend" d="M 347.5 183.8 Q 347.5 182.1, 348.0 180.7 Q 348.5 179.3, 349.4 177.8 L 350.1 178.2 Q 349.3 179.6, 348.9 180.9 Q 348.6 182.1, 348.6 183.8 Q 348.6 185.3, 348.9 186.6 Q 349.3 187.8, 350.1 189.3 L 349.4 189.7 Q 348.5 188.2, 348.0 186.8 Q 347.5 185.5, 347.5 183.8 " fill="#000000"/>
<path class="legend" d="M 350.8 182.9 Q 350.8 180.9, 351.8 179.8 Q 352.8 178.7, 354.6 178.7 Q 356.4 178.7, 357.3 179.9 L 356.5 180.5 Q 355.8 179.6, 354.6 179.6 Q 353.4 179.6, 352.7 180.5 Q 352.0 181.3, 352.0 182.9 Q 352.0 184.6, 352.7 185.4 Q 353.4 186.3, 354.8 186.3 Q 355.7 186.3, 356.8 185.7 L 357.1 186.6 Q 356.6 186.9, 356.0 187.0 Q 355.3 187.2, 354.6 187.2 Q 352.8 187.2, 351.8 186.1 Q 350.8 185.0, 350.8 182.9 " fill="#000000"/>
<path class="legend" d="M 360.8 183.8 Q 360.8 185.5, 360.3 186.8 Q 359.8 188.2, 358.9 189.7 L 358.2 189.3 Q 359.0 187.8, 359.3 186.6 Q 359.7 185.3, 359.7 183.8 Q 359.7 182.1, 359.3 180.9 Q 359.0 179.6, 358.2 178.2 L 358.9 177.8 Q 359.8 179.3, 360.3 180.7 Q 360.8 182.1, 360.8 183.8 " fill="#000000"/>
<path class="legend" d="M 361.9 182.9 Q 361.9 180.9, 362.8 179.8 Q 363.8 178.7, 365.6 178.7 Q 367.4 178.7, 368.3 179.9 L 367.5 180.5 Q 366.8 179.6, 365.6 179.6 Q 364.4 179.6, 363.7 180.5 Q 363.1 181.3, 363.1 182.9 Q 363.1 184.6, 363.7 185.4 Q 364.4 186.3, 365.8 186.3 Q 366.7 186.3, 367.8 185.7 L 368.1 186.6 Q 367.7 186.9, 367.0 187.0 Q 366.3 187.2, 365.6 187.2 Q 363.8 187.2, 362.8 186.1 Q 361.9 185.0, 361.9 182.9 " fill="#000000"/>
<path class="legend" d="M 369.2 183.8 Q 369.2 182.1, 369.7 180.7 Q 370.2 179.3, 371.1 177.8 L 371.8 178.2 Q 371.0 179.6, 370.7 180.9 Q 370.3 182.1, 370.3 183.8 Q 370.3 185.3, 370.7 186.6 Q 371.0 187.8, 371.8 189.3 L 371.1 189.7 Q 370.2 188.2, 369.7 186.8 Q 369.2 185.5, 369.2 183.8 " fill="#000000"/>
<path class="legend" d="M 372.6 182.9 Q 372.6 180.9, 373.5 179.8 Q 374.5 178.7, 376.4 178.7 Q 378.1 178.7, 379.0 179.9 L 378.2 180.5 Q 377.5 179.6, 376.4 179.6 Q 375.1 179.6, 374.4 180.5 Q 373.8 181.3, 373.8 182.9 Q 373.8 184.6, 374.4 185.4 Q 375.1 186.3, 376.5 186.3 Q 377.4 186.3, 378.5 185.7 L 378.8 186.6 Q 378.4 186.9, 377.7 187.0 Q 377.1 187.2, 376.3 187.2 Q 374.5 187.2, 373.5 186.1 Q 372.6 185.0, 372.6 182.9 " fill="#000000"/>
<path class="legend" d="M 382.5 183.8 Q 382.5 185.5, 382.0 186.8 Q 381.5 188.2, 380.6 189.7 L 379.9 189.3 Q 380.7 187.8, 381.1 186.6 Q 381.5 185.3, 381.5 183.8 Q 381.5 182.1, 381.1 180.9 Q 380.7 179.6, 379.9 178.2 L 380.6 177.8 Q 381.5 179.3, 382.0 180.7 Q 382.5 182.1, 382.5 183.8 " fill="#000000"/>
<path class="legend" d="M 383.6 182.9 Q 383.6 180.9, 384.5 179.8 Q 385.5 178.7, 387.4 178.7 Q 389.1 178.7, 390.0 179.9 L 389.2 180.5 Q 388.6 179.6, 387.4 179.6 Q 386.1 179.6, 385.4 180.5 Q 384.8 181.3, 384.8 182.9 Q 384.8 184.6, 385.5 185.4 Q 386.2 186.3, 387.5 186.3 Q 388.4 186.3, 389.5 185.7 L 389.8 186.6 Q 389.4 186.9, 388.7 187.0 Q 388.1 187.2, 387.3 187.2 Q 385.5 187.2, 384.5 186.1 Q 383.6 185.0, 383.6 182.9 " fill="#000000"/>
</svg>